<svg width="480" height="480" viewBox="0 0 480 480" fill="none" xmlns="http://www.w3.org/2000/svg">
<path d="M276.25 108.177L311.86 130.487L347.47 152.797C364.846 163.416 380.292 172.962 393.592 181.435C406.999 189.909 416.867 196.88 423.195 202.458C435.101 212.647 441 224.768 441 238.711C441 244.611 440.142 250.832 438.426 257.16C431.668 280.971 426.627 296.953 423.517 305.212C420.299 313.471 416.223 319.799 411.075 323.982C406.034 328.272 396.166 333.957 381.793 341.144C307.57 379.328 248.363 407.751 204.172 426.414C159.982 445.077 124.801 454.409 98.5225 454.409C79.4304 454.409 64.6287 449.046 54.3318 438.213C43.9277 427.38 38.7793 411.827 38.7793 391.448C38.7793 375.359 41.6753 357.661 47.36 338.248C53.0447 318.941 62.269 296.095 75.0328 269.816L87.7966 273.034C69.5626 312.934 60.4456 342.645 60.4456 362.166C60.4456 374.501 64.3069 383.94 71.9223 390.483C79.5377 397.025 90.5853 400.35 105.065 400.35C125.444 400.35 157.944 391.019 202.456 372.356C246.969 353.693 318.296 319.692 416.33 270.46C411.611 261.128 403.781 252.44 392.734 244.396C381.686 236.352 357.982 221.228 321.406 199.24L304.889 189.05L175.105 109.464C168.348 105.174 163.414 99.7038 160.518 92.9465C157.515 86.1892 156.657 78.5738 157.944 69.9931L163.629 32.4525L170.6 25.4807L245.038 66.8826L241.82 75.7851L207.497 64.952C217.687 72.1383 240.64 86.6183 276.25 108.177Z" fill="#1100FF"/>
</svg>
