<svg width="480" height="480" viewBox="0 0 480 480" fill="none" xmlns="http://www.w3.org/2000/svg">
<path d="M434.7 194.5C431.2 168.5 426.7 145.4 421.3 125.4C412.1 93.3 397.8 68.7 378.2 51.6C358.6 34.5 334.7 26 306.3 26C282.5 26 261.7 32.5 243.8 45.4C225.9 58.3 213.6 78.5 206.9 106C201.9 125.2 199 150 198.2 180.4C197.8 209.2 205 231.8 219.8 248.2C234.6 264.7 260.1 272.9 296.4 272.9C318.9 272.9 337.9 271 353.3 267.3C360.8 265.5 368.4 263.2 376.2 260.5C377 270.7 377.8 280.1 378.4 288.8C358 297.4 331.9 307.4 299.9 318.8C234.1 342.4 147.5 370.6 40 403.5L46.9 448.5L161.3 454.8C171.3 453.6 192.1 447.5 223.8 436.7C255.5 425.9 288.3 413.7 322.2 400.1C356.2 386.6 379 376 390.6 368.5C397.7 364.3 405.1 355.8 412.8 342.9C420.5 330 427 315.7 432.2 300.1C437.4 284.5 440 270.8 440 259.2C440 242.1 438.2 220.5 434.7 194.5ZM344.1 181.6C331 184.1 315.4 185.4 297.5 185.4C280.4 185.4 268.8 183.1 262.5 178.5C256.2 173.9 253.1 166 253.1 154.7L254.2 125.5C257.1 122.6 260.4 119.9 264 117.5C273 111.5 284.1 108.4 297.4 108.4C309.9 108.4 321 111.6 330.8 118.1C340.6 124.6 348.7 133.8 355.2 145.9C359.9 154.6 363.5 164.6 366.1 175.7C359 178.3 351.6 180.2 344.1 181.6Z" fill="#F4EBD0"/>
</svg>
