<svg width="480" height="480" viewBox="0 0 480 480" fill="none" xmlns="http://www.w3.org/2000/svg">
<path d="M53.3078 438.753C37.1026 420.582 29 392.385 29 354.119C29 323.978 31.5004 281.951 36.5223 228.039C41.5337 174.127 46.1653 130.748 50.417 97.9019L90.3603 105.435C87.2691 132.491 83.893 167.175 80.2321 209.487C76.5606 251.81 74.7354 279.341 74.7354 292.093C74.7354 303.302 76.3707 311.902 79.6518 317.892C82.9224 323.893 88.8094 328.235 97.313 330.929C105.795 333.634 117.949 334.986 133.785 334.986C148.45 334.986 162.63 334.025 176.334 332.091C190.029 330.158 200.357 328.235 207.31 326.291L199.207 275.855C186.853 199.725 175.849 135.185 166.206 82.2343L226.986 60.7878L228.727 71.8068C236.83 129.005 244.732 186.202 252.465 243.4C253.626 249.591 255.841 253.542 259.122 255.285C262.393 257.029 270.211 257.895 282.565 257.895L302.252 257.314L301.672 60.7983L342.775 61.9605L345.666 251.524C353.769 253.067 362.642 254.916 372.295 257.029C381.938 259.163 391.402 261.001 400.665 262.533C394.873 187.174 386.96 111.816 376.927 36.4571L436.536 15C440.386 56.7415 443.773 102.339 446.664 151.803C449.555 201.278 451 241.657 451 272.96C451 306.208 447.909 332.958 441.737 353.253C435.565 373.537 422.82 383.69 403.534 383.69C393.881 383.69 382.117 381.175 368.223 376.157C354.328 371.139 342.554 365.529 332.911 359.349C322.097 379.453 305.122 389.49 281.974 389.49C269.62 389.49 258.616 385.243 248.973 376.738C246.272 387.947 242.02 398.85 236.239 409.489C230.447 420.117 223.505 429.097 215.402 436.44C204.588 446.096 191.084 453.438 174.879 458.467C158.673 463.486 142.837 466 127.413 466C94.2112 466 69.5236 456.914 53.3078 438.753Z" fill="#7CB1DF"/>
</svg>
