<svg width="480" height="480" viewBox="0 0 480 480" fill="none" xmlns="http://www.w3.org/2000/svg">
<path d="M42.5985 247.852C60.9798 238.052 75.4142 231.037 85.9242 226.771C96.423 222.539 106.583 220.406 116.439 220.406C129.566 220.406 140.876 225.154 150.405 234.606C159.934 244.092 168.302 259.919 175.519 282.135L177.492 346.815L280.89 309.569C238.196 297.805 208.492 283.437 191.769 266.441C175.045 249.457 167.648 226.266 169.621 196.866C170.929 176.616 182.24 154.569 203.587 130.704C224.934 106.872 249.044 86.2963 275.962 68.9756C302.846 51.666 322.874 43 336 43C360.944 60.6688 378.153 81.2337 387.682 104.762C397.188 128.279 401.947 156.062 401.947 188.055C401.947 201.121 400.639 223.336 398.011 254.7L461.027 266.464L463 281.18L420.678 348.791L368.489 338.026C340.263 368.076 306.128 391.605 266.095 408.589C226.051 425.573 185.702 435.058 145.004 437H123.341L104.621 305.674C94.1225 308.29 80.6466 312.858 64.2613 319.392L37.6705 330.179L17 260.582L42.5985 247.852ZM323.189 189.042C321.881 180.545 319.57 174.012 316.288 169.443C313.006 164.874 304.808 156.04 291.682 142.973C278.556 152.122 267.707 160.956 259.182 169.443C250.657 177.929 246.394 185.125 246.394 191.007C246.394 198.191 253.758 205.387 268.542 212.571C283.326 219.755 302.846 227.602 327.125 236.088C325.817 213.222 324.498 197.54 323.189 189.042Z" fill="#7A41D0"/>
</svg>
