<?xml version="1.0" encoding="utf-8"?>
<!-- Generator: Adobe Illustrator 27.0.1, SVG Export Plug-In . SVG Version: 6.00 Build 0)  -->
<svg version="1.1" id="Layer_1" xmlns="http://www.w3.org/2000/svg" xmlns:xlink="http://www.w3.org/1999/xlink" x="0px" y="0px"
	 viewBox="0 0 160 161.4" style="enable-background:new 0 0 160 161.4;" xml:space="preserve">
<style type="text/css">
	.st0{fill:#EAEAEA;}
</style>
<path class="st0" d="M25,154.4c-7.6-4.5-13.7-10.7-18.2-18.4S0,120,0,111.2V79.8C0,70.9,2.2,62.6,6.7,55s10.5-13.7,18-18.2
	S40.5,30,49.4,30h0.8L70,0l90,59.2v51.2c0,9.2-2.3,17.7-6.8,25.5c-4.5,7.8-10.7,14-18.5,18.6s-16.2,6.9-25.3,6.9
	c-10.3,0-20.1-3.3-29.4-10c-4.1,3.1-8.9,5.5-14.3,7.2s-10.8,2.6-16.1,2.6C40.8,161.2,32.6,158.9,25,154.4z M43,117.5
	c2,1.9,4.3,2.9,7,2.9c2.8,0,5.2-1,7.2-3s3-4.4,3-7.2V90.4l40,0.2v20c0,2.7,1,5,2.9,6.9s4.2,2.9,6.9,2.9c2.8,0,5.2-1,7.1-3
	s2.9-4.4,2.9-7.2V80.6l-39.6-26L70,69.8H50.2c-2.8,0-5.2,1-7.2,3s-3,4.4-3,7.2v30.6C40,113.3,41,115.6,43,117.5z"/>
</svg>
