<svg width="480" height="480" viewBox="0 0 480 480" fill="none" xmlns="http://www.w3.org/2000/svg">
<path d="M138.139 314.712V385.492C138.139 418.732 154.654 435.299 187.789 435.299H339.352V472H184.131C157.999 472 133.122 464.555 109.395 449.665C85.6672 434.775 66.7479 415.376 52.4279 391.154C38.1078 367.141 31 341.661 31 314.712V278.011H137.094C119.011 263.016 104.586 245.61 94.0293 225.792C83.3676 206.078 78.0368 185.002 78.0368 162.667V8H391.615V162.667C391.615 185.421 386.493 206.602 376.145 226.421C365.902 246.134 352 263.331 334.544 278.011H449V314.712H138.139ZM287.089 267.525V44.7006H182.563V267.525C199.601 274.551 217.057 278.011 234.826 278.011C252.595 278.011 270.051 274.551 287.089 267.525Z" fill="#FFA178"/>
</svg>
