<svg version="1.0" xmlns="http://www.w3.org/2000/svg" width="91.000000pt" height="92.000000pt" viewBox="-3 -3 97 98" preserveAspectRatio="xMidYMid meet"><g id="deeditor_bgCarrier" stroke-width="0">
  <rect id="dee_c_e" x="-3" y="-3" width="97" height="98" rx="38.4" fill="#00B4AB" strokewidth="0"/>
</g>

<g transform="translate(0.000000,92.000000) scale(0.100000,-0.100000)" fill="#ffffff" stroke="none">
<path d="M385 674 c-11 -3 -31 -7 -44 -10 l-24 -5 7 -134 c8 -156 19 -232 34 -247 8 -8 26 -9 59 -2 l48 9 -3 58 c-3 37 0 57 7 57 6 0 31 9 55 21 34 16 48 30 60 59 25 64 0 147 -53 174 -30 16 -114 27 -146 20z m136 -30 c55 -28 68 -69 39 -128 -16 -34 -30 -48 -61 -60 -22 -9 -49 -16 -60 -16 -19 0 -20 -4 -13 -59 l6 -58 -38 -6 c-21 -4 -39 -5 -41 -4 -5 6 -25 294 -21 318 3 21 9 25 58 30 62 6 93 2 131 -17z m39 -185 c0 -15 -89 -52 -108 -44 -13 5 -5 12 30 24 26 9 50 19 54 24 11 10 24 9 24 -4z m-125 -159 c8 -12 -40 -24 -62 -15 -17 7 -16 8 2 15 28 12 53 12 60 0z" fill="#ffffff"/>
<path d="M410 554 l0 -56 28 7 c39 10 62 34 62 65 0 30 -15 40 -61 40 -29 0 -29 -1 -29 -56z m75 36 c3 -5 -2 -11 -12 -11 -17 -1 -17 -2 0 -6 23 -6 22 -30 -3 -43 -17 -9 -20 -8 -20 14 0 14 -4 28 -10 31 -5 3 -10 10 -10 16 0 12 47 12 55 -1z" fill="#ffffff"/>
</g>
</svg>